SubSource-HROTdd_VROTdd_SLENx_SANGn.ufo
<glyph name="ampersand" format="2">
  <advance width="634"/>
  <unicode hex="0026"/>
  <outline>
    <contour>
      <point x="576" y="303" type="curve" smooth="yes"/>
      <point x="378" y="303" type="line" smooth="yes"/>
      <point x="234" y="303"/>
      <point x="153" y="268"/>
      <point x="153" y="180" type="curve" smooth="yes"/>
      <point x="153" y="115"/>
      <point x="209" y="79"/>
      <point x="288" y="79" type="curve" smooth="yes"/>
      <point x="371" y="79"/>
      <point x="426" y="120"/>
      <point x="426" y="198" type="curve" smooth="yes"/>
      <point x="425" y="471" type="line" smooth="yes"/>
      <point x="425" y="538"/>
      <point x="515" y="539"/>
      <point x="515" y="471" type="curve" smooth="yes"/>
      <point x="516" y="198" type="line" smooth="yes"/>
      <point x="516" y="72"/>
      <point x="423" y="-11"/>
      <point x="288" y="-11" type="curve" smooth="yes"/>
      <point x="153" y="-11"/>
      <point x="63" y="69"/>
      <point x="63" y="180" type="curve" smooth="yes"/>
      <point x="63" y="311"/>
      <point x="163" y="393"/>
      <point x="378" y="393" type="curve" smooth="yes"/>
      <point x="576" y="393" type="line" smooth="yes"/>
      <point x="644" y="393"/>
      <point x="644" y="303"/>
    </contour>
    <contour>
      <point x="414" y="579" type="curve" smooth="yes"/>
      <point x="313" y="617"/>
      <point x="170" y="610"/>
      <point x="170" y="503" type="curve" smooth="yes"/>
      <point x="170" y="433"/>
      <point x="244" y="393"/>
      <point x="378" y="393" type="curve" smooth="yes"/>
      <point x="446" y="393"/>
      <point x="446" y="303"/>
      <point x="378" y="303" type="curve" smooth="yes"/>
      <point x="169" y="303"/>
      <point x="80" y="394"/>
      <point x="80" y="503" type="curve" smooth="yes"/>
      <point x="80" y="679"/>
      <point x="279" y="726"/>
      <point x="446" y="663" type="curve" smooth="yes"/>
      <point x="509" y="639"/>
      <point x="477" y="555"/>
    </contour>
  </outline>
</glyph>
<glyph name="quotesingle" format="2">
  <advance width="297"/>
  <unicode hex="0027"/>
  <outline>
    <contour>
      <point x="-17" y="318" type="curve" smooth="yes"/>
      <point x="-17" y="401"/>
      <point x="-16" y="485"/>
      <point x="27" y="579" type="curve" smooth="yes"/>
      <point x="55" y="640"/>
      <point x="137" y="603"/>
      <point x="109" y="541" type="curve" smooth="yes"/>
      <point x="72" y="462"/>
      <point x="73" y="388"/>
      <point x="73" y="318" type="curve" smooth="yes"/>
      <point x="73" y="251"/>
      <point x="-17" y="251"/>
    </contour>
  </outline>
</glyph>
<glyph name="asterisk" format="2">
  <advance width="614"/>
  <unicode hex="002A"/>
  <outline>
    <contour>
      <point x="85" y="509" type="curve" smooth="yes"/>
      <point x="134" y="509"/>
      <point x="154" y="509"/>
      <point x="187" y="509" type="curve" smooth="yes"/>
      <point x="264" y="509"/>
      <point x="353" y="453"/>
      <point x="389" y="390" type="curve" smooth="yes"/>
      <point x="409" y="354"/>
      <point x="419" y="338"/>
      <point x="439" y="302" type="curve" smooth="yes"/>
      <point x="472" y="243"/>
      <point x="393" y="199"/>
      <point x="361" y="258" type="curve" smooth="yes"/>
      <point x="341" y="294"/>
      <point x="331" y="310"/>
      <point x="311" y="346" type="curve" smooth="yes"/>
      <point x="291" y="381"/>
      <point x="230" y="419"/>
      <point x="187" y="419" type="curve" smooth="yes"/>
      <point x="138" y="419"/>
      <point x="118" y="419"/>
      <point x="85" y="419" type="curve" smooth="yes"/>
      <point x="18" y="419"/>
      <point x="18" y="509"/>
    </contour>
    <contour>
      <point x="319" y="506" type="curve" smooth="yes"/>
      <point x="300" y="471"/>
      <point x="291" y="455"/>
      <point x="270" y="418" type="curve" smooth="yes"/>
      <point x="234" y="355"/>
      <point x="144" y="299"/>
      <point x="67" y="299" type="curve" smooth="yes"/>
      <point x="18" y="299"/>
      <point x="-2" y="299"/>
      <point x="-35" y="299" type="curve" smooth="yes"/>
      <point x="-102" y="299"/>
      <point x="-102" y="389"/>
      <point x="-35" y="389" type="curve" smooth="yes"/>
      <point x="14" y="389"/>
      <point x="34" y="389"/>
      <point x="67" y="389" type="curve" smooth="yes"/>
      <point x="110" y="389"/>
      <point x="172" y="427"/>
      <point x="192" y="462" type="curve" smooth="yes"/>
      <point x="211" y="497"/>
      <point x="220" y="513"/>
      <point x="241" y="550" type="curve" smooth="yes"/>
      <point x="273" y="609"/>
      <point x="352" y="565"/>
    </contour>
    <contour>
      <point x="504" y="419" type="curve" smooth="yes"/>
      <point x="455" y="419"/>
      <point x="435" y="419"/>
      <point x="402" y="419" type="curve" smooth="yes"/>
      <point x="325" y="419"/>
      <point x="236" y="475"/>
      <point x="200" y="538" type="curve" smooth="yes"/>
      <point x="180" y="574"/>
      <point x="170" y="590"/>
      <point x="150" y="626" type="curve" smooth="yes"/>
      <point x="117" y="685"/>
      <point x="196" y="729"/>
      <point x="228" y="670" type="curve" smooth="yes"/>
      <point x="248" y="634"/>
      <point x="258" y="618"/>
      <point x="278" y="582" type="curve" smooth="yes"/>
      <point x="298" y="547"/>
      <point x="359" y="509"/>
      <point x="402" y="509" type="curve" smooth="yes"/>
      <point x="451" y="509"/>
      <point x="471" y="509"/>
      <point x="504" y="509" type="curve" smooth="yes"/>
      <point x="572" y="509"/>
      <point x="572" y="419"/>
    </contour>
    <contour>
      <point x="30" y="182" type="curve" smooth="yes"/>
      <point x="50" y="219"/>
      <point x="64" y="238"/>
      <point x="84" y="273" type="curve" smooth="yes"/>
      <point x="120" y="336"/>
      <point x="205" y="389"/>
      <point x="282" y="389" type="curve" smooth="yes"/>
      <point x="331" y="389"/>
      <point x="351" y="389"/>
      <point x="384" y="389" type="curve" smooth="yes"/>
      <point x="452" y="389"/>
      <point x="452" y="299"/>
      <point x="384" y="299" type="curve" smooth="yes"/>
      <point x="335" y="299"/>
      <point x="315" y="299"/>
      <point x="282" y="299" type="curve" smooth="yes"/>
      <point x="239" y="299"/>
      <point x="182" y="264"/>
      <point x="162" y="229" type="curve" smooth="yes"/>
      <point x="142" y="192"/>
      <point x="128" y="173"/>
      <point x="108" y="138" type="curve" smooth="yes"/>
      <point x="76" y="79"/>
      <point x="-3" y="123"/>
    </contour>
    <contour>
      <point x="109" y="549" type="curve" smooth="yes"/>
      <point x="129" y="513"/>
      <point x="139" y="497"/>
      <point x="159" y="461" type="curve" smooth="yes"/>
      <point x="187" y="414"/>
      <point x="240" y="320"/>
      <point x="270" y="269" type="curve" smooth="yes"/>
      <point x="290" y="234"/>
      <point x="299" y="218"/>
      <point x="319" y="182" type="curve" smooth="yes"/>
      <point x="353" y="124"/>
      <point x="274" y="79"/>
      <point x="241" y="138" type="curve" smooth="yes"/>
      <point x="221" y="172"/>
      <point x="212" y="188"/>
      <point x="192" y="223" type="curve" smooth="yes"/>
      <point x="164" y="271"/>
      <point x="111" y="365"/>
      <point x="81" y="417" type="curve" smooth="yes"/>
      <point x="61" y="453"/>
      <point x="51" y="469"/>
      <point x="31" y="505" type="curve" smooth="yes"/>
      <point x="-2" y="564"/>
      <point x="77" y="608"/>
    </contour>
  </outline>
</glyph>
<glyph name="zero" format="2">
  <advance width="592"/>
  <unicode hex="0030"/>
  <outline>
    <contour>
      <point x="259" y="-2" type="curve" smooth="yes"/>
      <point x="271" y="-2"/>
      <point x="273" y="1"/>
      <point x="280" y="12" type="curve" smooth="yes"/>
      <point x="309" y="48"/>
      <point x="342" y="135"/>
      <point x="342" y="221" type="curve" smooth="yes"/>
      <point x="342" y="367"/>
      <point x="280" y="480"/>
      <point x="176" y="480" type="curve" smooth="yes"/>
      <point x="71" y="480"/>
      <point x="10" y="367"/>
      <point x="10" y="221" type="curve" smooth="yes"/>
      <point x="10" y="144"/>
      <point x="21" y="52"/>
      <point x="63" y="20" type="curve" smooth="yes"/>
      <point x="85" y="4"/>
      <point x="118" y="-1"/>
      <point x="152" y="-2" type="curve" smooth="yes"/>
      <point x="219" y="-3"/>
      <point x="218" y="-93"/>
      <point x="150" y="-92" type="curve" smooth="yes"/>
      <point x="92" y="-91"/>
      <point x="45" y="-79"/>
      <point x="9" y="-52" type="curve" smooth="yes"/>
      <point x="-58" y="-1"/>
      <point x="-80" y="101"/>
      <point x="-80" y="221" type="curve" smooth="yes"/>
      <point x="-80" y="430"/>
      <point x="26" y="570"/>
      <point x="176" y="570" type="curve" smooth="yes"/>
      <point x="325" y="570"/>
      <point x="432" y="430"/>
      <point x="432" y="221" type="curve" smooth="yes"/>
      <point x="432" y="109"/>
      <point x="389" y="4"/>
      <point x="352" y="-44" type="curve" smooth="yes"/>
      <point x="326" y="-77"/>
      <point x="302" y="-90"/>
      <point x="263" y="-92" type="curve" smooth="yes"/>
      <point x="195" y="-95"/>
      <point x="192" y="-5"/>
    </contour>
  </outline>
</glyph>
<glyph name="four" format="2">
  <advance width="525"/>
  <unicode hex="0034"/>
  <outline>
    <contour>
      <point x="442" y="136" type="curve" smooth="yes"/>
      <point x="351" y="136"/>
      <point x="259" y="136"/>
      <point x="198" y="136" type="curve" smooth="yes"/>
      <point x="149" y="136"/>
      <point x="119" y="136"/>
      <point x="100" y="136" type="curve" smooth="yes"/>
      <point x="75" y="136"/>
      <point x="-155" y="52"/>
      <point x="-64" y="199" type="curve" smooth="yes"/>
      <point x="-51" y="220"/>
      <point x="-23" y="256"/>
      <point x="7" y="296" type="curve" smooth="yes"/>
      <point x="54" y="357"/>
      <point x="114" y="437"/>
      <point x="149" y="484" type="curve" smooth="yes"/>
      <point x="176" y="522"/>
      <point x="202" y="557"/>
      <point x="217" y="578" type="curve" smooth="yes"/>
      <point x="344" y="767"/>
      <point x="295" y="489"/>
      <point x="295" y="452" type="curve" smooth="yes"/>
      <point x="295" y="429"/>
      <point x="295" y="402"/>
      <point x="295" y="378" type="curve" smooth="yes"/>
      <point x="295" y="239"/>
      <point x="295" y="82"/>
      <point x="295" y="37" type="curve" smooth="yes"/>
      <point x="295" y="26"/>
      <point x="296" y="-8"/>
      <point x="301" y="-10" type="curve" smooth="yes"/>
      <point x="361" y="-41"/>
      <point x="319" y="-121"/>
      <point x="259" y="-90" type="curve" smooth="yes"/>
      <point x="224" y="-72"/>
      <point x="205" y="-40"/>
      <point x="205" y="37" type="curve" smooth="yes"/>
      <point x="205" y="104"/>
      <point x="205" y="285"/>
      <point x="205" y="378" type="curve" smooth="yes"/>
      <point x="205" y="413"/>
      <point x="205" y="436"/>
      <point x="205" y="452" type="curve" smooth="yes"/>
      <point x="205" y="826"/>
      <point x="304" y="546"/>
      <point x="291" y="528" type="curve" smooth="yes"/>
      <point x="276" y="505"/>
      <point x="248" y="468"/>
      <point x="221" y="430" type="curve" smooth="yes"/>
      <point x="186" y="383"/>
      <point x="126" y="303"/>
      <point x="79" y="242" type="curve" smooth="yes"/>
      <point x="53" y="208"/>
      <point x="23" y="168"/>
      <point x="12" y="151" type="curve" smooth="yes"/>
      <point x="7" y="142"/>
      <point x="-296" y="226"/>
      <point x="100" y="226" type="curve" smooth="yes"/>
      <point x="128" y="226"/>
      <point x="165" y="226"/>
      <point x="198" y="226" type="curve" smooth="yes"/>
      <point x="289" y="226"/>
      <point x="381" y="226"/>
      <point x="442" y="226" type="curve" smooth="yes"/>
      <point x="510" y="226"/>
      <point x="510" y="136"/>
    </contour>
  </outline>
</glyph>
<glyph name="colon" format="2">
  <advance width="260"/>
  <unicode hex="003A"/>
  <outline>
    <contour>
      <point x="13" y="-125" type="curve" smooth="yes"/>
      <point x="-71" y="-112"/>
      <point x="-71" y="-4"/>
      <point x="13" y="9" type="curve" smooth="yes"/>
      <point x="80" y="18"/>
      <point x="93" y="-71"/>
      <point x="27" y="-81" type="curve" smooth="yes"/>
      <point x="24" y="-81"/>
      <point x="24" y="-35"/>
      <point x="27" y="-35" type="curve" smooth="yes"/>
      <point x="93" y="-45"/>
      <point x="80" y="-134"/>
    </contour>
    <contour>
      <point x="13" y="235" type="curve" smooth="yes"/>
      <point x="-71" y="248"/>
      <point x="-71" y="356"/>
      <point x="13" y="369" type="curve" smooth="yes"/>
      <point x="80" y="378"/>
      <point x="93" y="289"/>
      <point x="27" y="279" type="curve" smooth="yes"/>
      <point x="24" y="279"/>
      <point x="24" y="325"/>
      <point x="27" y="325" type="curve" smooth="yes"/>
      <point x="93" y="315"/>
      <point x="80" y="226"/>
    </contour>
  </outline>
</glyph>
<glyph name="less" format="2">
  <advance width="447"/>
  <unicode hex="003C"/>
  <outline>
    <contour>
      <point x="260" y="316" type="curve" smooth="yes"/>
      <point x="192" y="276"/>
      <point x="197" y="304"/>
      <point x="125" y="260" type="curve" smooth="yes"/>
      <point x="73" y="228"/>
      <point x="30" y="208"/>
      <point x="69" y="174" type="curve" smooth="yes"/>
      <point x="125" y="122"/>
      <point x="193" y="99"/>
      <point x="266" y="85" type="curve" smooth="yes"/>
      <point x="332" y="72"/>
      <point x="315" y="-16"/>
      <point x="248" y="-3" type="curve" smooth="yes"/>
      <point x="159" y="15"/>
      <point x="77" y="44"/>
      <point x="9" y="106" type="curve" smooth="yes"/>
      <point x="-81" y="187"/>
      <point x="-43" y="262"/>
      <point x="77" y="336" type="curve" smooth="yes"/>
      <point x="167" y="392"/>
      <point x="160" y="362"/>
      <point x="214" y="394" type="curve" smooth="yes"/>
      <point x="272" y="428"/>
      <point x="318" y="351"/>
    </contour>
  </outline>
</glyph>
<glyph name="E" format="2">
  <advance width="523"/>
  <unicode hex="0045"/>
  <outline>
    <contour>
      <point x="349" y="503" type="curve" smooth="yes"/>
      <point x="263" y="470"/>
      <point x="221" y="470"/>
      <point x="174" y="470" type="curve" smooth="yes"/>
      <point x="130" y="470"/>
      <point x="117" y="470"/>
      <point x="86" y="470" type="curve" smooth="yes"/>
      <point x="48" y="470"/>
      <point x="50" y="461"/>
      <point x="50" y="424" type="curve" smooth="yes"/>
      <point x="50" y="418"/>
      <point x="53" y="390"/>
      <point x="56" y="390" type="curve" smooth="yes"/>
      <point x="82" y="384"/>
      <point x="142" y="395"/>
      <point x="189" y="395" type="curve" smooth="yes"/>
      <point x="243" y="395"/>
      <point x="298" y="395"/>
      <point x="339" y="395" type="curve" smooth="yes"/>
      <point x="494" y="395"/>
      <point x="374" y="185"/>
      <point x="219" y="185" type="curve" smooth="yes"/>
      <point x="165" y="185"/>
      <point x="113" y="185"/>
      <point x="70" y="185" type="curve" smooth="yes"/>
      <point x="57" y="185"/>
      <point x="50" y="187"/>
      <point x="50" y="177" type="curve" smooth="yes"/>
      <point x="50" y="106"/>
      <point x="50" y="32"/>
      <point x="50" y="2" type="curve" smooth="yes"/>
      <point x="50" y="-31"/>
      <point x="55" y="-30"/>
      <point x="84" y="-30" type="curve" smooth="yes"/>
      <point x="121" y="-30"/>
      <point x="134" y="-30"/>
      <point x="168" y="-30" type="curve" smooth="yes"/>
      <point x="203" y="-30"/>
      <point x="239" y="-30"/>
      <point x="318" y="-3" type="curve" smooth="yes"/>
      <point x="382" y="20"/>
      <point x="412" y="-65"/>
      <point x="348" y="-87" type="curve" smooth="yes"/>
      <point x="255" y="-120"/>
      <point x="209" y="-120"/>
      <point x="168" y="-120" type="curve" smooth="yes"/>
      <point x="117" y="-120"/>
      <point x="109" y="-120"/>
      <point x="84" y="-120" type="curve" smooth="yes"/>
      <point x="5" y="-120"/>
      <point x="-40" y="-86"/>
      <point x="-40" y="2" type="curve" smooth="yes"/>
      <point x="-40" y="47"/>
      <point x="-40" y="130"/>
      <point x="-40" y="177" type="curve" smooth="yes"/>
      <point x="-40" y="239"/>
      <point x="-6" y="275"/>
      <point x="70" y="275" type="curve" smooth="yes"/>
      <point x="133" y="275"/>
      <point x="183" y="275"/>
      <point x="219" y="275" type="curve" smooth="yes"/>
      <point x="225" y="275"/>
      <point x="345" y="305"/>
      <point x="339" y="305" type="curve" smooth="yes"/>
      <point x="278" y="305"/>
      <point x="225" y="305"/>
      <point x="189" y="305" type="curve" smooth="yes"/>
      <point x="159" y="305"/>
      <point x="77" y="292"/>
      <point x="34" y="302" type="curve" smooth="yes"/>
      <point x="-5" y="312"/>
      <point x="-40" y="350"/>
      <point x="-40" y="424" type="curve" smooth="yes"/>
      <point x="-40" y="514"/>
      <point x="-6" y="560"/>
      <point x="86" y="560" type="curve" smooth="yes"/>
      <point x="132" y="560"/>
      <point x="145" y="560"/>
      <point x="174" y="560" type="curve" smooth="yes"/>
      <point x="213" y="560"/>
      <point x="245" y="560"/>
      <point x="317" y="587" type="curve" smooth="yes"/>
      <point x="380" y="611"/>
      <point x="412" y="527"/>
    </contour>
  </outline>
</glyph>
<glyph name="L" format="2">
  <advance width="498"/>
  <unicode hex="004C"/>
  <outline>
    <contour>
      <point x="293" y="-120" type="curve" smooth="yes"/>
      <point x="216" y="-120"/>
      <point x="206" y="-70"/>
      <point x="150" y="-70" type="curve" smooth="yes"/>
      <point x="29" y="-70"/>
      <point x="-40" y="-73"/>
      <point x="-40" y="83" type="curve" smooth="yes"/>
      <point x="-40" y="212"/>
      <point x="-40" y="313"/>
      <point x="-40" y="400" type="curve" smooth="yes"/>
      <point x="-40" y="444"/>
      <point x="-40" y="488"/>
      <point x="-18" y="554" type="curve" smooth="yes"/>
      <point x="4" y="618"/>
      <point x="89" y="590"/>
      <point x="68" y="526" type="curve" smooth="yes"/>
      <point x="50" y="472"/>
      <point x="50" y="436"/>
      <point x="50" y="400" type="curve" smooth="yes"/>
      <point x="50" y="271"/>
      <point x="50" y="170"/>
      <point x="50" y="83" type="curve" smooth="yes"/>
      <point x="50" y="-2"/>
      <point x="84" y="20"/>
      <point x="150" y="20" type="curve" smooth="yes"/>
      <point x="244" y="20"/>
      <point x="247" y="-30"/>
      <point x="293" y="-30" type="curve" smooth="yes"/>
      <point x="361" y="-30"/>
      <point x="361" y="-120"/>
    </contour>
  </outline>
</glyph>
<glyph name="N" format="2">
  <advance width="688"/>
  <unicode hex="004E"/>
  <outline>
    <contour>
      <point x="-4" y="-87" type="curve" smooth="yes"/>
      <point x="-32" y="-57"/>
      <point x="-40" y="-14"/>
      <point x="-40" y="44" type="curve" smooth="yes"/>
      <point x="-40" y="135"/>
      <point x="-40" y="241"/>
      <point x="-40" y="318" type="curve" smooth="yes"/>
      <point x="-40" y="367"/>
      <point x="-40" y="403"/>
      <point x="-40" y="429" type="curve" smooth="yes"/>
      <point x="-40" y="575"/>
      <point x="137" y="712"/>
      <point x="224" y="593" type="curve" smooth="yes"/>
      <point x="243" y="567"/>
      <point x="265" y="537"/>
      <point x="287" y="504" type="curve" smooth="yes"/>
      <point x="345" y="421"/>
      <point x="415" y="318"/>
      <point x="476" y="232" type="curve" smooth="yes"/>
      <point x="498" y="200"/>
      <point x="518" y="171"/>
      <point x="536" y="146" type="curve" smooth="yes"/>
      <point x="644" y="-6"/>
      <point x="398" y="-176"/>
      <point x="398" y="21" type="curve" smooth="yes"/>
      <point x="398" y="48"/>
      <point x="398" y="78"/>
      <point x="398" y="106" type="curve" smooth="yes"/>
      <point x="398" y="218"/>
      <point x="398" y="334"/>
      <point x="398" y="396" type="curve" smooth="yes"/>
      <point x="398" y="441"/>
      <point x="402" y="492"/>
      <point x="424" y="558" type="curve" smooth="yes"/>
      <point x="445" y="622"/>
      <point x="531" y="594"/>
      <point x="510" y="530" type="curve" smooth="yes"/>
      <point x="492" y="474"/>
      <point x="488" y="433"/>
      <point x="488" y="396" type="curve" smooth="yes"/>
      <point x="488" y="303"/>
      <point x="488" y="181"/>
      <point x="488" y="106" type="curve" smooth="yes"/>
      <point x="488" y="65"/>
      <point x="488" y="39"/>
      <point x="488" y="21" type="curve" smooth="yes"/>
      <point x="488" y="13"/>
      <point x="467" y="87"/>
      <point x="462" y="94" type="curve" smooth="yes"/>
      <point x="444" y="119"/>
      <point x="424" y="148"/>
      <point x="402" y="180" type="curve" smooth="yes"/>
      <point x="343" y="264"/>
      <point x="273" y="368"/>
      <point x="213" y="454" type="curve" smooth="yes"/>
      <point x="191" y="485"/>
      <point x="169" y="515"/>
      <point x="152" y="539" type="curve" smooth="yes"/>
      <point x="122" y="580"/>
      <point x="50" y="479"/>
      <point x="50" y="429" type="curve" smooth="yes"/>
      <point x="50" y="390"/>
      <point x="50" y="351"/>
      <point x="50" y="318" type="curve" smooth="yes"/>
      <point x="50" y="203"/>
      <point x="50" y="105"/>
      <point x="50" y="44" type="curve" smooth="yes"/>
      <point x="50" y="23"/>
      <point x="51" y="-14"/>
      <point x="62" y="-25" type="curve" smooth="yes"/>
      <point x="108" y="-74"/>
      <point x="43" y="-136"/>
    </contour>
  </outline>
</glyph>
<glyph name="O" format="2">
  <advance width="732"/>
  <unicode hex="004F"/>
  <outline>
    <contour>
      <point x="226" y="-92" type="curve" smooth="yes"/>
      <point x="161" y="-104"/>
      <point x="114" y="-99"/>
      <point x="71" y="-78" type="curve" smooth="yes"/>
      <point x="-30" y="-30"/>
      <point x="-75" y="88"/>
      <point x="-75" y="221" type="curve" smooth="yes"/>
      <point x="-75" y="425"/>
      <point x="61" y="570"/>
      <point x="248" y="570" type="curve" smooth="yes"/>
      <point x="434" y="570"/>
      <point x="567" y="424"/>
      <point x="567" y="221" type="curve" smooth="yes"/>
      <point x="567" y="92"/>
      <point x="503" y="-22"/>
      <point x="433" y="-71" type="curve" smooth="yes"/>
      <point x="389" y="-101"/>
      <point x="349" y="-105"/>
      <point x="317" y="-88" type="curve" smooth="yes"/>
      <point x="257" y="-56"/>
      <point x="299" y="23"/>
      <point x="359" y="-8" type="curve" smooth="yes"/>
      <point x="361" y="-9"/>
      <point x="379" y="1"/>
      <point x="381" y="3" type="curve" smooth="yes"/>
      <point x="431" y="38"/>
      <point x="477" y="128"/>
      <point x="477" y="221" type="curve" smooth="yes"/>
      <point x="477" y="372"/>
      <point x="386" y="480"/>
      <point x="248" y="480" type="curve" smooth="yes"/>
      <point x="109" y="480"/>
      <point x="15" y="373"/>
      <point x="15" y="221" type="curve" smooth="yes"/>
      <point x="15" y="129"/>
      <point x="40" y="36"/>
      <point x="111" y="2" type="curve" smooth="yes"/>
      <point x="138" y="-11"/>
      <point x="168" y="-12"/>
      <point x="210" y="-4" type="curve" smooth="yes"/>
      <point x="276" y="9"/>
      <point x="293" y="-80"/>
    </contour>
  </outline>
</glyph>
<glyph name="R" format="2">
  <advance width="595"/>
  <unicode hex="0052"/>
  <outline>
    <contour>
      <point x="21" y="-93" type="curve" smooth="yes"/>
      <point x="-34" y="-74"/>
      <point x="-40" y="-12"/>
      <point x="-40" y="41" type="curve" smooth="yes"/>
      <point x="-40" y="129"/>
      <point x="-40" y="299"/>
      <point x="-40" y="395" type="curve" smooth="yes"/>
      <point x="-40" y="506"/>
      <point x="27" y="600"/>
      <point x="117" y="600" type="curve" smooth="yes"/>
      <point x="147" y="600"/>
      <point x="174" y="600"/>
      <point x="200" y="600" type="curve" smooth="yes"/>
      <point x="336" y="600"/>
      <point x="384" y="476"/>
      <point x="380" y="355" type="curve" smooth="yes"/>
      <point x="376" y="232"/>
      <point x="291" y="153"/>
      <point x="172" y="153" type="curve" smooth="yes"/>
      <point x="135" y="153" type="line" smooth="yes"/>
      <point x="-28" y="153"/>
      <point x="94" y="363"/>
      <point x="255" y="363" type="curve" smooth="yes"/>
      <point x="346" y="363"/>
      <point x="405" y="298"/>
      <point x="404" y="196" type="curve" smooth="yes"/>
      <point x="403" y="130"/>
      <point x="385" y="3"/>
      <point x="437" y="-18" type="curve" smooth="yes"/>
      <point x="500" y="-44"/>
      <point x="465" y="-127"/>
      <point x="403" y="-102" type="curve" smooth="yes"/>
      <point x="294" y="-57"/>
      <point x="313" y="58"/>
      <point x="314" y="198" type="curve" smooth="yes"/>
      <point x="315" y="245"/>
      <point x="298" y="273"/>
      <point x="255" y="273" type="curve" smooth="yes"/>
      <point x="248" y="273"/>
      <point x="128" y="243"/>
      <point x="135" y="243" type="curve" smooth="yes"/>
      <point x="172" y="243" type="line" smooth="yes"/>
      <point x="243" y="243"/>
      <point x="288" y="284"/>
      <point x="290" y="357" type="curve" smooth="yes"/>
      <point x="292" y="426"/>
      <point x="277" y="510"/>
      <point x="200" y="510" type="curve" smooth="yes"/>
      <point x="161" y="510"/>
      <point x="137" y="510"/>
      <point x="117" y="510" type="curve" smooth="yes"/>
      <point x="76" y="510"/>
      <point x="50" y="446"/>
      <point x="50" y="395" type="curve" smooth="yes"/>
      <point x="50" y="251"/>
      <point x="50" y="100"/>
      <point x="50" y="41" type="curve" smooth="yes"/>
      <point x="50" y="39"/>
      <point x="47" y="-7"/>
      <point x="49" y="-7" type="curve" smooth="yes"/>
      <point x="113" y="-29"/>
      <point x="85" y="-114"/>
    </contour>
  </outline>
</glyph>
<glyph name="U" format="2">
  <advance width="668"/>
  <unicode hex="0055"/>
  <outline>
    <contour>
      <point x="66" y="531" type="curve" smooth="yes"/>
      <point x="40" y="474"/>
      <point x="40" y="415"/>
      <point x="40" y="384" type="curve" smooth="yes"/>
      <point x="40" y="276"/>
      <point x="40" y="221"/>
      <point x="40" y="148" type="curve" smooth="yes"/>
      <point x="40" y="39"/>
      <point x="105" y="-42"/>
      <point x="220" y="-30" type="curve" smooth="yes"/>
      <point x="343" y="-18"/>
      <point x="388" y="35"/>
      <point x="388" y="148" type="curve" smooth="yes"/>
      <point x="388" y="256"/>
      <point x="388" y="311"/>
      <point x="388" y="384" type="curve" smooth="yes"/>
      <point x="388" y="423"/>
      <point x="388" y="496"/>
      <point x="422" y="569" type="curve" smooth="yes"/>
      <point x="450" y="630"/>
      <point x="532" y="592"/>
      <point x="504" y="531" type="curve" smooth="yes"/>
      <point x="478" y="474"/>
      <point x="478" y="415"/>
      <point x="478" y="384" type="curve" smooth="yes"/>
      <point x="478" y="276"/>
      <point x="478" y="221"/>
      <point x="478" y="148" type="curve" smooth="yes"/>
      <point x="478" y="-9"/>
      <point x="401" y="-102"/>
      <point x="230" y="-120" type="curve" smooth="yes"/>
      <point x="59" y="-138"/>
      <point x="-50" y="-13"/>
      <point x="-50" y="148" type="curve" smooth="yes"/>
      <point x="-50" y="256"/>
      <point x="-50" y="311"/>
      <point x="-50" y="384" type="curve" smooth="yes"/>
      <point x="-50" y="423"/>
      <point x="-50" y="496"/>
      <point x="-16" y="569" type="curve" smooth="yes"/>
      <point x="12" y="630"/>
      <point x="94" y="592"/>
    </contour>
  </outline>
</glyph>
<glyph name="W" format="2">
  <advance width="888"/>
  <unicode hex="0057"/>
  <outline>
    <contour>
      <point x="25" y="535" type="curve" smooth="yes"/>
      <point x="19" y="482"/>
      <point x="44" y="405"/>
      <point x="55" y="368" type="curve" smooth="yes"/>
      <point x="84" y="269"/>
      <point x="108" y="187"/>
      <point x="141" y="82" type="curve" smooth="yes"/>
      <point x="147" y="62"/>
      <point x="154" y="40"/>
      <point x="161" y="19" type="curve" smooth="yes"/>
      <point x="178" y="-38"/>
      <point x="253" y="79"/>
      <point x="269" y="137" type="curve" smooth="yes"/>
      <point x="276" y="161"/>
      <point x="282" y="186"/>
      <point x="287" y="209" type="curve" smooth="yes"/>
      <point x="311" y="300"/>
      <point x="332" y="388"/>
      <point x="351" y="465" type="curve" smooth="yes"/>
      <point x="358" y="493"/>
      <point x="364" y="518"/>
      <point x="371" y="545" type="curve" smooth="yes"/>
      <point x="374" y="555"/>
      <point x="392" y="428"/>
      <point x="395" y="418" type="curve" smooth="yes"/>
      <point x="400" y="395"/>
      <point x="406" y="372"/>
      <point x="412" y="348" type="curve" smooth="yes"/>
      <point x="432" y="266"/>
      <point x="456" y="176"/>
      <point x="478" y="89" type="curve" smooth="yes"/>
      <point x="485" y="60"/>
      <point x="491" y="37"/>
      <point x="496" y="17" type="curve" smooth="yes"/>
      <point x="510" y="-40"/>
      <point x="591" y="81"/>
      <point x="609" y="140" type="curve" smooth="yes"/>
      <point x="613" y="154"/>
      <point x="621" y="180"/>
      <point x="620" y="188" type="curve" smooth="yes"/>
      <point x="617" y="247"/>
      <point x="554" y="228"/>
      <point x="600" y="386" type="curve" smooth="yes"/>
      <point x="614" y="432"/>
      <point x="634" y="496"/>
      <point x="668" y="561" type="curve" smooth="yes"/>
      <point x="700" y="621"/>
      <point x="779" y="578"/>
      <point x="748" y="519" type="curve" smooth="yes"/>
      <point x="716" y="460"/>
      <point x="698" y="402"/>
      <point x="686" y="360" type="curve" smooth="yes"/>
      <point x="654" y="249"/>
      <point x="705" y="276"/>
      <point x="710" y="194" type="curve" smooth="yes"/>
      <point x="711" y="173"/>
      <point x="706" y="149"/>
      <point x="695" y="114" type="curve" smooth="yes"/>
      <point x="641" y="-66"/>
      <point x="452" y="-179"/>
      <point x="408" y="-5" type="curve" smooth="yes"/>
      <point x="401" y="24"/>
      <point x="395" y="47"/>
      <point x="390" y="67" type="curve" smooth="yes"/>
      <point x="368" y="153"/>
      <point x="344" y="244"/>
      <point x="324" y="326" type="curve" smooth="yes"/>
      <point x="318" y="350"/>
      <point x="312" y="375"/>
      <point x="307" y="396" type="curve" smooth="yes"/>
      <point x="251" y="620"/>
      <point x="515" y="745"/>
      <point x="459" y="523" type="curve" smooth="yes"/>
      <point x="452" y="496"/>
      <point x="446" y="471"/>
      <point x="439" y="443" type="curve" smooth="yes"/>
      <point x="419" y="364"/>
      <point x="398" y="276"/>
      <point x="375" y="187" type="curve" smooth="yes"/>
      <point x="368" y="162"/>
      <point x="362" y="137"/>
      <point x="355" y="113" type="curve" smooth="yes"/>
      <point x="307" y="-62"/>
      <point x="126" y="-178"/>
      <point x="75" y="-9" type="curve" smooth="yes"/>
      <point x="68" y="14"/>
      <point x="61" y="36"/>
      <point x="55" y="56" type="curve" smooth="yes"/>
      <point x="22" y="161"/>
      <point x="-2" y="243"/>
      <point x="-31" y="342" type="curve" smooth="yes"/>
      <point x="-46" y="391"/>
      <point x="-73" y="474"/>
      <point x="-65" y="545" type="curve" smooth="yes"/>
      <point x="-57" y="612"/>
      <point x="32" y="602"/>
    </contour>
  </outline>
</glyph>
<glyph name="b" format="2">
  <advance width="584"/>
  <unicode hex="0062"/>
  <outline>
    <contour>
      <point x="-21" y="-79" type="curve" smooth="yes"/>
      <point x="-49" y="-42"/>
      <point x="-54" y="-20"/>
      <point x="-54" y="130" type="curve" smooth="yes"/>
      <point x="-54" y="281"/>
      <point x="47" y="388"/>
      <point x="185" y="388" type="curve" smooth="yes"/>
      <point x="322" y="388"/>
      <point x="426" y="279"/>
      <point x="426" y="128" type="curve" smooth="yes"/>
      <point x="426" y="-41"/>
      <point x="333" y="-106"/>
      <point x="235" y="-56" type="curve" smooth="yes"/>
      <point x="146" y="-11"/>
      <point x="89" y="114"/>
      <point x="75" y="195" type="curve" smooth="yes"/>
      <point x="46" y="363"/>
      <point x="-54" y="318"/>
      <point x="-54" y="487" type="curve" smooth="yes"/>
      <point x="-54" y="516"/>
      <point x="-50" y="554"/>
      <point x="-39" y="600" type="curve" smooth="yes"/>
      <point x="-23" y="665"/>
      <point x="65" y="644"/>
      <point x="49" y="578" type="curve" smooth="yes"/>
      <point x="40" y="542"/>
      <point x="36" y="510"/>
      <point x="36" y="487" type="curve" smooth="yes"/>
      <point x="36" y="353"/>
      <point x="127" y="422"/>
      <point x="163" y="211" type="curve" smooth="yes"/>
      <point x="173" y="156"/>
      <point x="216" y="55"/>
      <point x="277" y="24" type="curve" smooth="yes"/>
      <point x="319" y="2"/>
      <point x="336" y="54"/>
      <point x="336" y="128" type="curve" smooth="yes"/>
      <point x="336" y="227"/>
      <point x="274" y="298"/>
      <point x="185" y="298" type="curve" smooth="yes"/>
      <point x="95" y="298"/>
      <point x="36" y="229"/>
      <point x="36" y="130" type="curve" smooth="yes"/>
      <point x="36" y="39"/>
      <point x="34" y="-3"/>
      <point x="51" y="-25" type="curve" smooth="yes"/>
      <point x="91" y="-79"/>
      <point x="19" y="-133"/>
    </contour>
  </outline>
</glyph>
<glyph name="f" format="2">
  <advance width="364"/>
  <unicode hex="0066"/>
  <outline>
    <contour>
      <point x="283" y="571" type="curve" smooth="yes"/>
      <point x="171" y="560"/>
      <point x="88" y="534"/>
      <point x="88" y="464" type="curve" smooth="yes"/>
      <point x="88" y="293"/>
      <point x="88" y="141"/>
      <point x="88" y="75" type="curve" smooth="yes"/>
      <point x="88" y="51"/>
      <point x="90" y="-16"/>
      <point x="99" y="-27" type="curve" smooth="yes"/>
      <point x="145" y="-77"/>
      <point x="78" y="-137"/>
      <point x="33" y="-87" type="curve" smooth="yes"/>
      <point x="4" y="-56"/>
      <point x="-2" y="1"/>
      <point x="-2" y="75" type="curve" smooth="yes"/>
      <point x="-2" y="174"/>
      <point x="-2" y="350"/>
      <point x="-2" y="464" type="curve" smooth="yes"/>
      <point x="-2" y="579"/>
      <point x="91" y="642"/>
      <point x="273" y="661" type="curve" smooth="yes"/>
      <point x="341" y="668"/>
      <point x="350" y="578"/>
    </contour>
    <contour>
      <point x="229" y="328" type="curve" smooth="yes"/>
      <point x="170" y="328"/>
      <point x="140" y="349"/>
      <point x="126" y="379" type="curve"/>
      <point x="126" y="379"/>
      <point x="78" y="358"/>
      <point x="73" y="356" type="curve" smooth="yes"/>
      <point x="29" y="339"/>
      <point x="6" y="328"/>
      <point x="-23" y="328" type="curve" smooth="yes"/>
      <point x="-90" y="328"/>
      <point x="-90" y="418"/>
      <point x="-23" y="418" type="curve" smooth="yes"/>
      <point x="-11" y="418"/>
      <point x="22" y="433"/>
      <point x="39" y="440" type="curve" smooth="yes"/>
      <point x="141" y="481"/>
      <point x="186" y="459"/>
      <point x="208" y="417" type="curve" smooth="yes"/>
      <point x="208" y="416"/>
      <point x="226" y="418"/>
      <point x="229" y="418" type="curve" smooth="yes"/>
      <point x="297" y="418"/>
      <point x="297" y="328"/>
    </contour>
  </outline>
</glyph>
<glyph name="h" format="2">
  <advance width="568"/>
  <unicode hex="0068"/>
  <outline>
    <contour>
      <point x="356" y="-90" type="curve" smooth="yes"/>
      <point x="308" y="-66"/>
      <point x="301" y="-17"/>
      <point x="301" y="55" type="curve" smooth="yes"/>
      <point x="301" y="103"/>
      <point x="301" y="142"/>
      <point x="301" y="173" type="curve" smooth="yes"/>
      <point x="301" y="252"/>
      <point x="200" y="279"/>
      <point x="164" y="307" type="curve" smooth="yes"/>
      <point x="153" y="315"/>
      <point x="156" y="280"/>
      <point x="156" y="258" type="curve" smooth="yes"/>
      <point x="156" y="190"/>
      <point x="156" y="169"/>
      <point x="156" y="130" type="curve" smooth="yes"/>
      <point x="156" y="-58"/>
      <point x="-54" y="-178"/>
      <point x="-54" y="10" type="curve" smooth="yes"/>
      <point x="-54" y="94"/>
      <point x="-54" y="402"/>
      <point x="-54" y="423" type="curve" smooth="yes"/>
      <point x="-54" y="495"/>
      <point x="-53" y="544"/>
      <point x="-20" y="621" type="curve" smooth="yes"/>
      <point x="6" y="683"/>
      <point x="89" y="647"/>
      <point x="62" y="585" type="curve" smooth="yes"/>
      <point x="35" y="522"/>
      <point x="36" y="483"/>
      <point x="36" y="423" type="curve" smooth="yes"/>
      <point x="36" y="391"/>
      <point x="36" y="66"/>
      <point x="36" y="10" type="curve" smooth="yes"/>
      <point x="36" y="1"/>
      <point x="66" y="121"/>
      <point x="66" y="130" type="curve" smooth="yes"/>
      <point x="66" y="188"/>
      <point x="66" y="212"/>
      <point x="66" y="258" type="curve" smooth="yes"/>
      <point x="66" y="440"/>
      <point x="126" y="449"/>
      <point x="218" y="379" type="curve" smooth="yes"/>
      <point x="284" y="328"/>
      <point x="391" y="313"/>
      <point x="391" y="173" type="curve" smooth="yes"/>
      <point x="391" y="127"/>
      <point x="391" y="87"/>
      <point x="391" y="55" type="curve" smooth="yes"/>
      <point x="391" y="48"/>
      <point x="392" y="-7"/>
      <point x="396" y="-10" type="curve" smooth="yes"/>
      <point x="456" y="-40"/>
      <point x="416" y="-120"/>
    </contour>
  </outline>
</glyph>
<glyph name="l" format="2">
  <advance width="231"/>
  <unicode hex="006C"/>
  <outline>
    <contour>
      <point x="4" y="-90" type="curve" smooth="yes"/>
      <point x="-44" y="-64"/>
      <point x="-50" y="-15"/>
      <point x="-50" y="58" type="curve" smooth="yes"/>
      <point x="-50" y="216"/>
      <point x="-50" y="341"/>
      <point x="-50" y="447" type="curve" smooth="yes"/>
      <point x="-50" y="491"/>
      <point x="-50" y="540"/>
      <point x="-28" y="609" type="curve" smooth="yes"/>
      <point x="-7" y="673"/>
      <point x="78" y="646"/>
      <point x="58" y="581" type="curve" smooth="yes"/>
      <point x="40" y="524"/>
      <point x="40" y="483"/>
      <point x="40" y="447" type="curve" smooth="yes"/>
      <point x="40" y="289"/>
      <point x="40" y="164"/>
      <point x="40" y="58" type="curve" smooth="yes"/>
      <point x="40" y="49"/>
      <point x="40" y="-7"/>
      <point x="46" y="-10" type="curve" smooth="yes"/>
      <point x="106" y="-42"/>
      <point x="63" y="-121"/>
    </contour>
  </outline>
</glyph>
<glyph name="o" format="2">
  <advance width="577"/>
  <unicode hex="006F"/>
  <outline>
    <contour>
      <point x="140" y="-90" type="curve" smooth="yes"/>
      <point x="63" y="-87"/>
      <point x="8" y="-74"/>
      <point x="-32" y="-30" type="curve" smooth="yes"/>
      <point x="-67" y="9"/>
      <point x="-81" y="66"/>
      <point x="-81" y="129" type="curve" smooth="yes"/>
      <point x="-81" y="279"/>
      <point x="26" y="388"/>
      <point x="168" y="388" type="curve" smooth="yes"/>
      <point x="311" y="388"/>
      <point x="418" y="278"/>
      <point x="418" y="129" type="curve" smooth="yes"/>
      <point x="418" y="70"/>
      <point x="398" y="14"/>
      <point x="374" y="-23" type="curve" smooth="yes"/>
      <point x="344" y="-72"/>
      <point x="314" y="-86"/>
      <point x="265" y="-90" type="curve" smooth="yes"/>
      <point x="197" y="-95"/>
      <point x="190" y="-6"/>
      <point x="257" y="0" type="curve" smooth="yes"/>
      <point x="280" y="2"/>
      <point x="284" y="2"/>
      <point x="298" y="25" type="curve" smooth="yes"/>
      <point x="314" y="50"/>
      <point x="328" y="90"/>
      <point x="328" y="129" type="curve" smooth="yes"/>
      <point x="328" y="228"/>
      <point x="263" y="298"/>
      <point x="168" y="298" type="curve" smooth="yes"/>
      <point x="74" y="298"/>
      <point x="9" y="227"/>
      <point x="9" y="129" type="curve" smooth="yes"/>
      <point x="9" y="93"/>
      <point x="15" y="52"/>
      <point x="34" y="30" type="curve" smooth="yes"/>
      <point x="57" y="5"/>
      <point x="99" y="1"/>
      <point x="142" y="0" type="curve" smooth="yes"/>
      <point x="210" y="-2"/>
      <point x="207" y="-92"/>
    </contour>
  </outline>
</glyph>
<glyph name="t" format="2">
  <advance width="336"/>
  <unicode hex="0074"/>
  <outline>
    <contour>
      <point x="50" y="-89" type="curve" smooth="yes"/>
      <point x="19" y="-70"/>
      <point x="-2" y="-43"/>
      <point x="-2" y="45" type="curve" smooth="yes"/>
      <point x="-2" y="178"/>
      <point x="-2" y="245"/>
      <point x="-2" y="343" type="curve" smooth="yes"/>
      <point x="-2" y="397"/>
      <point x="1" y="440"/>
      <point x="12" y="490" type="curve" smooth="yes"/>
      <point x="26" y="556"/>
      <point x="114" y="538"/>
      <point x="100" y="472" type="curve" smooth="yes"/>
      <point x="91" y="428"/>
      <point x="88" y="391"/>
      <point x="88" y="343" type="curve" smooth="yes"/>
      <point x="88" y="197"/>
      <point x="88" y="134"/>
      <point x="88" y="45" type="curve" smooth="yes"/>
      <point x="88" y="25"/>
      <point x="89" y="-7"/>
      <point x="96" y="-11" type="curve" smooth="yes"/>
      <point x="154" y="-46"/>
      <point x="108" y="-123"/>
    </contour>
    <contour>
      <point x="204" y="333" type="curve" smooth="yes"/>
      <point x="165" y="333"/>
      <point x="142" y="352"/>
      <point x="128" y="375" type="curve" smooth="yes"/>
      <point x="128" y="376"/>
      <point x="78" y="358"/>
      <point x="73" y="356" type="curve" smooth="yes"/>
      <point x="36" y="341"/>
      <point x="9" y="333"/>
      <point x="-18" y="333" type="curve" smooth="yes"/>
      <point x="-85" y="333"/>
      <point x="-85" y="423"/>
      <point x="-18" y="423" type="curve" smooth="yes"/>
      <point x="-3" y="423"/>
      <point x="19" y="431"/>
      <point x="39" y="440" type="curve" smooth="yes"/>
      <point x="137" y="480"/>
      <point x="184" y="457"/>
      <point x="206" y="421" type="curve" smooth="yes"/>
      <point x="206" y="420"/>
      <point x="202" y="423"/>
      <point x="204" y="423" type="curve" smooth="yes"/>
      <point x="272" y="423"/>
      <point x="272" y="333"/>
    </contour>
  </outline>
</glyph>
<glyph name="u" format="2">
  <advance width="568"/>
  <unicode hex="0075"/>
  <outline>
    <contour>
      <point x="46" y="348" type="curve" smooth="yes"/>
      <point x="22" y="244"/>
      <point x="27" y="167"/>
      <point x="27" y="87" type="curve" smooth="yes"/>
      <point x="27" y="3"/>
      <point x="65" y="-41"/>
      <point x="138" y="-41" type="curve" smooth="yes"/>
      <point x="227" y="-41"/>
      <point x="293" y="25"/>
      <point x="293" y="104" type="curve" smooth="yes"/>
      <point x="293" y="152"/>
      <point x="293" y="222"/>
      <point x="293" y="253" type="curve" smooth="yes"/>
      <point x="293" y="438"/>
      <point x="503" y="558"/>
      <point x="503" y="373" type="curve" smooth="yes"/>
      <point x="503" y="306"/>
      <point x="503" y="214"/>
      <point x="503" y="153" type="curve" smooth="yes"/>
      <point x="503" y="126"/>
      <point x="503" y="79"/>
      <point x="510" y="62" type="curve" smooth="yes"/>
      <point x="535" y="-1"/>
      <point x="451" y="-34"/>
      <point x="426" y="28" type="curve" smooth="yes"/>
      <point x="414" y="60"/>
      <point x="413" y="103"/>
      <point x="413" y="153" type="curve" smooth="yes"/>
      <point x="413" y="243"/>
      <point x="413" y="328"/>
      <point x="413" y="373" type="curve" smooth="yes"/>
      <point x="413" y="382"/>
      <point x="383" y="262"/>
      <point x="383" y="253" type="curve" smooth="yes"/>
      <point x="383" y="207"/>
      <point x="383" y="136"/>
      <point x="383" y="104" type="curve" smooth="yes"/>
      <point x="383" y="-21"/>
      <point x="279" y="-131"/>
      <point x="138" y="-131" type="curve" smooth="yes"/>
      <point x="19" y="-131"/>
      <point x="-63" y="-51"/>
      <point x="-63" y="87" type="curve" smooth="yes"/>
      <point x="-63" y="175"/>
      <point x="-68" y="254"/>
      <point x="-42" y="368" type="curve" smooth="yes"/>
      <point x="-27" y="434"/>
      <point x="61" y="414"/>
    </contour>
  </outline>
</glyph>
<glyph name="sterling" format="2">
  <advance width="541"/>
  <unicode hex="00A3"/>
  <outline>
    <contour>
      <point x="354" y="477" type="curve" smooth="yes"/>
      <point x="270" y="468"/>
      <point x="223" y="478"/>
      <point x="184" y="478" type="curve" smooth="yes"/>
      <point x="119" y="478"/>
      <point x="79" y="445"/>
      <point x="79" y="377" type="curve" smooth="yes"/>
      <point x="79" y="283"/>
      <point x="162" y="157"/>
      <point x="192" y="118" type="curve" smooth="yes"/>
      <point x="249" y="43"/>
      <point x="230" y="0"/>
      <point x="142" y="0" type="curve" smooth="yes"/>
      <point x="135" y="0"/>
      <point x="20" y="-30"/>
      <point x="27" y="-30" type="curve" smooth="yes"/>
      <point x="68" y="-30"/>
      <point x="134" y="-30"/>
      <point x="186" y="-30" type="curve" smooth="yes"/>
      <point x="234" y="-30"/>
      <point x="277" y="-40"/>
      <point x="346" y="-5" type="curve" smooth="yes"/>
      <point x="406" y="26"/>
      <point x="447" y="-55"/>
      <point x="386" y="-85" type="curve" smooth="yes"/>
      <point x="298" y="-130"/>
      <point x="248" y="-120"/>
      <point x="186" y="-120" type="curve" smooth="yes"/>
      <point x="109" y="-120"/>
      <point x="55" y="-120"/>
      <point x="27" y="-120" type="curve" smooth="yes"/>
      <point x="-133" y="-120"/>
      <point x="-18" y="90"/>
      <point x="142" y="90" type="curve" smooth="yes"/>
      <point x="146" y="90"/>
      <point x="123" y="61"/>
      <point x="120" y="64" type="curve" smooth="yes"/>
      <point x="82" y="115"/>
      <point x="-11" y="255"/>
      <point x="-11" y="377" type="curve" smooth="yes"/>
      <point x="-11" y="495"/>
      <point x="69" y="568"/>
      <point x="184" y="568" type="curve" smooth="yes"/>
      <point x="227" y="568"/>
      <point x="270" y="558"/>
      <point x="344" y="567" type="curve" smooth="yes"/>
      <point x="411" y="574"/>
      <point x="421" y="485"/>
    </contour>
    <contour>
      <point x="58" y="347" type="curve" smooth="yes"/>
      <point x="149" y="372"/>
      <point x="201" y="346"/>
      <point x="240" y="322" type="curve" smooth="yes"/>
      <point x="265" y="307"/>
      <point x="315" y="297"/>
      <point x="348" y="287" type="curve" smooth="yes"/>
      <point x="413" y="269"/>
      <point x="389" y="182"/>
      <point x="324" y="201" type="curve" smooth="yes"/>
      <point x="274" y="215"/>
      <point x="232" y="222"/>
      <point x="192" y="246" type="curve" smooth="yes"/>
      <point x="167" y="262"/>
      <point x="141" y="276"/>
      <point x="82" y="261" type="curve" smooth="yes"/>
      <point x="16" y="243"/>
      <point x="-7" y="330"/>
    </contour>
  </outline>
</glyph>
<glyph name="brokenbar" format="2">
  <advance width="315"/>
  <unicode hex="00A6"/>
  <outline>
    <contour>
      <point x="203" y="230" type="curve" smooth="yes"/>
      <point x="203" y="-120" type="line" smooth="yes"/>
      <point x="203" y="-187"/>
      <point x="113" y="-187"/>
      <point x="113" y="-120" type="curve" smooth="yes"/>
      <point x="113" y="230" type="line" smooth="yes"/>
      <point x="113" y="298"/>
      <point x="203" y="298"/>
    </contour>
    <contour>
      <point x="203" y="730" type="curve" smooth="yes"/>
      <point x="203" y="380" type="line" smooth="yes"/>
      <point x="203" y="313"/>
      <point x="113" y="313"/>
      <point x="113" y="380" type="curve" smooth="yes"/>
      <point x="113" y="730" type="line" smooth="yes"/>
      <point x="113" y="798"/>
      <point x="203" y="798"/>
    </contour>
  </outline>
</glyph>
<glyph name="dieresis" format="2">
  <advance width="577"/>
  <unicode hex="00A8"/>
  <outline>
    <contour>
      <point x="63" y="471" type="curve" smooth="yes"/>
      <point x="-21" y="484"/>
      <point x="-21" y="592"/>
      <point x="63" y="605" type="curve" smooth="yes"/>
      <point x="130" y="614"/>
      <point x="143" y="525"/>
      <point x="77" y="515" type="curve" smooth="yes"/>
      <point x="74" y="515"/>
      <point x="74" y="561"/>
      <point x="77" y="561" type="curve" smooth="yes"/>
      <point x="143" y="551"/>
      <point x="130" y="462"/>
    </contour>
    <contour>
      <point x="283" y="471" type="curve" smooth="yes"/>
      <point x="199" y="484"/>
      <point x="199" y="592"/>
      <point x="283" y="605" type="curve" smooth="yes"/>
      <point x="350" y="614"/>
      <point x="363" y="525"/>
      <point x="297" y="515" type="curve" smooth="yes"/>
      <point x="294" y="515"/>
      <point x="294" y="561"/>
      <point x="297" y="561" type="curve" smooth="yes"/>
      <point x="363" y="551"/>
      <point x="350" y="462"/>
    </contour>
  </outline>
</glyph>
<glyph name="registered" format="2">
  <advance width="644"/>
  <unicode hex="00AE"/>
  <outline>
    <contour>
      <point x="322" y="197" type="curve" smooth="yes"/>
      <point x="439" y="197"/>
      <point x="521" y="281"/>
      <point x="521" y="398" type="curve" smooth="yes"/>
      <point x="521" y="515"/>
      <point x="439" y="599"/>
      <point x="322" y="599" type="curve" smooth="yes"/>
      <point x="205" y="599"/>
      <point x="123" y="515"/>
      <point x="123" y="398" type="curve" smooth="yes"/>
      <point x="123" y="281"/>
      <point x="205" y="197"/>
    </contour>
    <contour>
      <point x="322" y="107" type="curve" smooth="yes"/>
      <point x="155" y="107"/>
      <point x="33" y="231"/>
      <point x="33" y="398" type="curve" smooth="yes"/>
      <point x="33" y="565"/>
      <point x="155" y="689"/>
      <point x="322" y="689" type="curve" smooth="yes"/>
      <point x="489" y="689"/>
      <point x="611" y="565"/>
      <point x="611" y="398" type="curve" smooth="yes"/>
      <point x="611" y="231"/>
      <point x="489" y="107"/>
    </contour>
    <contour>
      <point x="206" y="301" type="curve" smooth="yes"/>
      <point x="206" y="499" type="line" smooth="yes"/>
      <point x="206" y="524"/>
      <point x="226" y="544"/>
      <point x="251" y="544" type="curve" smooth="yes"/>
      <point x="317" y="544" type="line" smooth="yes"/>
      <point x="390" y="544"/>
      <point x="436" y="496"/>
      <point x="436" y="436" type="curve" smooth="yes"/>
      <point x="436" y="374"/>
      <point x="388" y="329"/>
      <point x="321" y="329" type="curve" smooth="yes"/>
      <point x="268" y="329" type="line" smooth="yes"/>
      <point x="201" y="329"/>
      <point x="201" y="419"/>
      <point x="268" y="419" type="curve" smooth="yes"/>
      <point x="321" y="419" type="line" smooth="yes"/>
      <point x="335" y="419"/>
      <point x="346" y="423"/>
      <point x="346" y="436" type="curve" smooth="yes"/>
      <point x="346" y="449"/>
      <point x="333" y="454"/>
      <point x="317" y="454" type="curve" smooth="yes"/>
      <point x="251" y="454" type="line"/>
      <point x="296" y="499" type="line"/>
      <point x="296" y="301" type="line" smooth="yes"/>
      <point x="296" y="234"/>
      <point x="206" y="234"/>
    </contour>
    <contour>
      <point x="387" y="405" type="curve" smooth="yes"/>
      <point x="444" y="328" type="line" smooth="yes"/>
      <point x="484" y="274"/>
      <point x="412" y="220"/>
      <point x="372" y="274" type="curve" smooth="yes"/>
      <point x="315" y="351" type="line" smooth="yes"/>
      <point x="275" y="405"/>
      <point x="347" y="459"/>
    </contour>
  </outline>
</glyph>
<glyph name="degree" format="2">
  <advance width="532"/>
  <unicode hex="00B0"/>
  <outline>
    <contour>
      <point x="117" y="191" type="curve" smooth="yes"/>
      <point x="9" y="192"/>
      <point x="-60" y="261"/>
      <point x="-60" y="361" type="curve" smooth="yes"/>
      <point x="-60" y="482"/>
      <point x="25" y="570"/>
      <point x="145" y="570" type="curve" smooth="yes"/>
      <point x="265" y="570"/>
      <point x="353" y="482"/>
      <point x="353" y="361" type="curve" smooth="yes"/>
      <point x="353" y="251"/>
      <point x="296" y="192"/>
      <point x="234" y="191" type="curve" smooth="yes"/>
      <point x="167" y="189"/>
      <point x="164" y="279"/>
      <point x="232" y="281" type="curve" smooth="yes"/>
      <point x="252" y="281"/>
      <point x="263" y="326"/>
      <point x="263" y="361" type="curve" smooth="yes"/>
      <point x="263" y="432"/>
      <point x="215" y="480"/>
      <point x="145" y="480" type="curve" smooth="yes"/>
      <point x="75" y="480"/>
      <point x="30" y="432"/>
      <point x="30" y="361" type="curve" smooth="yes"/>
      <point x="30" y="309"/>
      <point x="62" y="282"/>
      <point x="119" y="281" type="curve" smooth="yes"/>
      <point x="186" y="280"/>
      <point x="185" y="190"/>
    </contour>
  </outline>
</glyph>
<glyph name="plusminus" format="2">
  <advance width="540"/>
  <unicode hex="00B1"/>
  <outline>
    <contour>
      <point x="184" y="463" type="curve" smooth="yes"/>
      <point x="242" y="396"/>
      <point x="251" y="275"/>
      <point x="193" y="90" type="curve" smooth="yes"/>
      <point x="173" y="26"/>
      <point x="87" y="53"/>
      <point x="107" y="118" type="curve" smooth="yes"/>
      <point x="148" y="247"/>
      <point x="157" y="357"/>
      <point x="116" y="405" type="curve" smooth="yes"/>
      <point x="72" y="456"/>
      <point x="140" y="515"/>
    </contour>
    <contour>
      <point x="352" y="215" type="curve" smooth="yes"/>
      <point x="156" y="159"/>
      <point x="19" y="165"/>
      <point x="-65" y="221" type="curve" smooth="yes"/>
      <point x="-121" y="258"/>
      <point x="-71" y="333"/>
      <point x="-15" y="295" type="curve" smooth="yes"/>
      <point x="50" y="252"/>
      <point x="175" y="258"/>
      <point x="328" y="301" type="curve" smooth="yes"/>
      <point x="393" y="320"/>
      <point x="417" y="233"/>
    </contour>
    <contour>
      <point x="352" y="-85" type="curve" smooth="yes"/>
      <point x="156" y="-141"/>
      <point x="19" y="-135"/>
      <point x="-65" y="-79" type="curve" smooth="yes"/>
      <point x="-121" y="-42"/>
      <point x="-71" y="33"/>
      <point x="-15" y="-5" type="curve" smooth="yes"/>
      <point x="50" y="-48"/>
      <point x="175" y="-42"/>
      <point x="328" y="1" type="curve" smooth="yes"/>
      <point x="393" y="20"/>
      <point x="417" y="-67"/>
    </contour>
  </outline>
</glyph>
<glyph name="threesuperior" format="2">
  <advance width="419"/>
  <unicode hex="00B3"/>
  <outline>
    <contour>
      <point x="6" y="255" type="curve" smooth="yes"/>
      <point x="64" y="233"/>
      <point x="156" y="234"/>
      <point x="156" y="279" type="curve" smooth="yes"/>
      <point x="156" y="291"/>
      <point x="151" y="300"/>
      <point x="138" y="306" type="curve" smooth="yes"/>
      <point x="125" y="313"/>
      <point x="106" y="319"/>
      <point x="80" y="320" type="curve" smooth="yes"/>
      <point x="-34" y="326"/>
      <point x="26" y="434"/>
      <point x="155" y="557" type="curve" smooth="yes"/>
      <point x="178" y="578"/>
      <point x="212" y="604"/>
      <point x="216" y="607" type="curve" smooth="yes"/>
      <point x="220" y="610"/>
      <point x="413" y="470"/>
      <point x="130" y="470" type="curve" smooth="yes"/>
      <point x="64" y="470"/>
      <point x="24" y="470"/>
      <point x="-8" y="470" type="curve" smooth="yes"/>
      <point x="-76" y="470"/>
      <point x="-75" y="560"/>
      <point x="-8" y="560" type="curve" smooth="yes"/>
      <point x="40" y="560"/>
      <point x="86" y="560"/>
      <point x="130" y="560" type="curve" smooth="yes"/>
      <point x="135" y="560"/>
      <point x="425" y="645"/>
      <point x="270" y="535" type="curve" smooth="yes"/>
      <point x="266" y="532"/>
      <point x="236" y="509"/>
      <point x="217" y="491" type="curve" smooth="yes"/>
      <point x="212" y="487"/>
      <point x="81" y="410"/>
      <point x="86" y="410" type="curve" smooth="yes"/>
      <point x="126" y="407"/>
      <point x="157" y="397"/>
      <point x="180" y="386" type="curve" smooth="yes"/>
      <point x="225" y="363"/>
      <point x="246" y="321"/>
      <point x="246" y="279" type="curve" smooth="yes"/>
      <point x="246" y="171"/>
      <point x="113" y="119"/>
      <point x="-26" y="171" type="curve" smooth="yes"/>
      <point x="-89" y="195"/>
      <point x="-57" y="279"/>
    </contour>
  </outline>
</glyph>
<glyph name="mu.math" format="2">
  <advance width="568"/>
  <unicode hex="00B5"/>
  <outline>
    <contour>
      <point x="57" y="-110" type="curve" smooth="yes"/>
      <point x="57" y="458" type="line" smooth="yes"/>
      <point x="57" y="526"/>
      <point x="147" y="526"/>
      <point x="147" y="458" type="curve" smooth="yes"/>
      <point x="147" y="-110" type="line" smooth="yes"/>
      <point x="147" y="-177"/>
      <point x="57" y="-177"/>
    </contour>
    <contour>
      <point x="503" y="458" type="curve" smooth="yes"/>
      <point x="503" y="40" type="line" smooth="yes"/>
      <point x="503" y="-28"/>
      <point x="413" y="-27"/>
      <point x="413" y="40" type="curve" smooth="yes"/>
      <point x="413" y="458" type="line" smooth="yes"/>
      <point x="413" y="526"/>
      <point x="503" y="526"/>
    </contour>
    <contour>
      <point x="147" y="207" type="curve" smooth="yes"/>
      <point x="147" y="123"/>
      <point x="185" y="79"/>
      <point x="258" y="79" type="curve" smooth="yes"/>
      <point x="347" y="79"/>
      <point x="413" y="145"/>
      <point x="413" y="224" type="curve" smooth="yes"/>
      <point x="413" y="292"/>
      <point x="503" y="292"/>
      <point x="503" y="224" type="curve" smooth="yes"/>
      <point x="503" y="99"/>
      <point x="399" y="-11"/>
      <point x="258" y="-11" type="curve" smooth="yes"/>
      <point x="139" y="-11"/>
      <point x="57" y="69"/>
      <point x="57" y="207" type="curve" smooth="yes"/>
      <point x="57" y="275"/>
      <point x="147" y="275"/>
    </contour>
  </outline>
</glyph>
<glyph name="paragraph" format="2">
  <advance width="778"/>
  <unicode hex="00B6"/>
  <outline>
    <contour>
      <point x="504" y="-81" type="curve" smooth="yes"/>
      <point x="449" y="-25"/>
      <point x="461" y="187"/>
      <point x="461" y="411" type="curve" smooth="yes"/>
      <point x="461" y="419"/>
      <point x="511" y="584"/>
      <point x="497" y="581" type="curve" smooth="yes"/>
      <point x="406" y="562"/>
      <point x="261" y="492"/>
      <point x="160" y="471" type="curve" smooth="yes"/>
      <point x="54" y="449"/>
      <point x="17" y="424"/>
      <point x="17" y="344" type="curve" smooth="yes"/>
      <point x="17" y="272"/>
      <point x="68" y="224"/>
      <point x="155" y="249" type="curve" smooth="yes"/>
      <point x="234" y="272"/>
      <point x="351" y="327"/>
      <point x="351" y="383" type="curve" smooth="yes"/>
      <point x="351" y="445"/>
      <point x="351" y="450"/>
      <point x="351" y="494" type="curve" smooth="yes"/>
      <point x="351" y="501"/>
      <point x="321" y="379"/>
      <point x="321" y="372" type="curve" smooth="yes"/>
      <point x="321" y="253"/>
      <point x="314" y="14"/>
      <point x="342" y="-21" type="curve" smooth="yes"/>
      <point x="385" y="-73"/>
      <point x="315" y="-130"/>
      <point x="272" y="-77" type="curve" smooth="yes"/>
      <point x="221" y="-15"/>
      <point x="231" y="156"/>
      <point x="231" y="372" type="curve" smooth="yes"/>
      <point x="231" y="538"/>
      <point x="441" y="658"/>
      <point x="441" y="494" type="curve" smooth="yes"/>
      <point x="441" y="428"/>
      <point x="441" y="425"/>
      <point x="441" y="383" type="curve" smooth="yes"/>
      <point x="441" y="282"/>
      <point x="323" y="205"/>
      <point x="181" y="163" type="curve" smooth="yes"/>
      <point x="28" y="118"/>
      <point x="-73" y="218"/>
      <point x="-73" y="344" type="curve" smooth="yes"/>
      <point x="-73" y="463"/>
      <point x="-17" y="526"/>
      <point x="142" y="559" type="curve" smooth="yes"/>
      <point x="233" y="578"/>
      <point x="378" y="648"/>
      <point x="479" y="669" type="curve" smooth="yes"/>
      <point x="714" y="718"/>
      <point x="551" y="549"/>
      <point x="551" y="411" type="curve" smooth="yes"/>
      <point x="551" y="315"/>
      <point x="545" y="6"/>
      <point x="568" y="-19" type="curve" smooth="yes"/>
      <point x="615" y="-67"/>
      <point x="551" y="-130"/>
    </contour>
  </outline>
</glyph>
<glyph name="ordmasculine" format="2">
  <advance width="492"/>
  <unicode hex="00BA"/>
  <outline>
    <contour>
      <point x="246" y="306" type="curve" smooth="yes"/>
      <point x="140" y="306"/>
      <point x="61" y="388"/>
      <point x="61" y="498" type="curve" smooth="yes"/>
      <point x="61" y="608"/>
      <point x="140" y="690"/>
      <point x="246" y="690" type="curve" smooth="yes"/>
      <point x="352" y="690"/>
      <point x="431" y="608"/>
      <point x="431" y="498" type="curve" smooth="yes"/>
      <point x="431" y="388"/>
      <point x="352" y="306"/>
    </contour>
    <contour>
      <point x="246" y="396" type="curve" smooth="yes"/>
      <point x="304" y="396"/>
      <point x="341" y="438"/>
      <point x="341" y="498" type="curve" smooth="yes"/>
      <point x="341" y="558"/>
      <point x="304" y="600"/>
      <point x="246" y="600" type="curve" smooth="yes"/>
      <point x="188" y="600"/>
      <point x="151" y="558"/>
      <point x="151" y="498" type="curve" smooth="yes"/>
      <point x="151" y="438"/>
      <point x="188" y="396"/>
    </contour>
    <contour>
      <point x="386" y="133" type="curve" smooth="yes"/>
      <point x="106" y="133" type="line" smooth="yes"/>
      <point x="38" y="133"/>
      <point x="39" y="223"/>
      <point x="106" y="223" type="curve" smooth="yes"/>
      <point x="386" y="223" type="line" smooth="yes"/>
      <point x="454" y="223"/>
      <point x="454" y="133"/>
    </contour>
  </outline>
</glyph>
<glyph name="guillemetright" format="2">
  <advance width="637"/>
  <unicode hex="00BB"/>
  <outline>
    <contour>
      <point x="241" y="8" type="curve" smooth="yes"/>
      <point x="253" y="19"/>
      <point x="281" y="47"/>
      <point x="348" y="114" type="curve" smooth="yes"/>
      <point x="402" y="168"/>
      <point x="434" y="183"/>
      <point x="400" y="215" type="curve" smooth="yes"/>
      <point x="357" y="256"/>
      <point x="263" y="254"/>
      <point x="209" y="305" type="curve" smooth="yes"/>
      <point x="160" y="352"/>
      <point x="222" y="417"/>
      <point x="271" y="371" type="curve" smooth="yes"/>
      <point x="306" y="337"/>
      <point x="396" y="343"/>
      <point x="462" y="281" type="curve" smooth="yes"/>
      <point x="536" y="211"/>
      <point x="528" y="166"/>
      <point x="412" y="50" type="curve" smooth="yes"/>
      <point x="325" y="-35"/>
      <point x="315" y="-47"/>
      <point x="299" y="-60" type="curve" smooth="yes"/>
      <point x="248" y="-104"/>
      <point x="189" y="-36"/>
    </contour>
    <contour>
      <point x="-19" y="8" type="curve" smooth="yes"/>
      <point x="-7" y="19"/>
      <point x="21" y="47"/>
      <point x="88" y="114" type="curve" smooth="yes"/>
      <point x="142" y="168"/>
      <point x="174" y="183"/>
      <point x="140" y="215" type="curve" smooth="yes"/>
      <point x="97" y="257"/>
      <point x="3" y="254"/>
      <point x="-51" y="305" type="curve" smooth="yes"/>
      <point x="-100" y="352"/>
      <point x="-38" y="417"/>
      <point x="11" y="371" type="curve" smooth="yes"/>
      <point x="46" y="337"/>
      <point x="136" y="344"/>
      <point x="202" y="281" type="curve" smooth="yes"/>
      <point x="276" y="211"/>
      <point x="268" y="166"/>
      <point x="152" y="50" type="curve" smooth="yes"/>
      <point x="65" y="-35"/>
      <point x="55" y="-47"/>
      <point x="39" y="-60" type="curve" smooth="yes"/>
      <point x="-12" y="-104"/>
      <point x="-71" y="-36"/>
    </contour>
  </outline>
</glyph>
<glyph name="questiondown" format="2">
  <advance width="511"/>
  <unicode hex="00BF"/>
  <outline>
    <contour>
      <point x="330" y="-194" type="curve" smooth="yes"/>
      <point x="271" y="-218"/>
      <point x="212" y="-229"/>
      <point x="160" y="-229" type="curve" smooth="yes"/>
      <point x="23" y="-229"/>
      <point x="-71" y="-154"/>
      <point x="-71" y="-50" type="curve" smooth="yes"/>
      <point x="-71" y="20"/>
      <point x="-24" y="86"/>
      <point x="63" y="123" type="curve" smooth="yes"/>
      <point x="124" y="148"/>
      <point x="130" y="159"/>
      <point x="130" y="193" type="curve" smooth="yes"/>
      <point x="130" y="261"/>
      <point x="220" y="261"/>
      <point x="220" y="193" type="curve" smooth="yes"/>
      <point x="220" y="133"/>
      <point x="206" y="85"/>
      <point x="97" y="39" type="curve" smooth="yes"/>
      <point x="51" y="20"/>
      <point x="19" y="-13"/>
      <point x="19" y="-50" type="curve" smooth="yes"/>
      <point x="19" y="-107"/>
      <point x="84" y="-139"/>
      <point x="160" y="-139" type="curve" smooth="yes"/>
      <point x="202" y="-139"/>
      <point x="249" y="-130"/>
      <point x="296" y="-110" type="curve" smooth="yes"/>
      <point x="358" y="-85"/>
      <point x="393" y="-168"/>
    </contour>
    <contour>
      <point x="219" y="423" type="curve" smooth="yes"/>
      <point x="219" y="406"/>
      <point x="219" y="381"/>
      <point x="219" y="369" type="curve" smooth="yes"/>
      <point x="219" y="302"/>
      <point x="129" y="302"/>
      <point x="129" y="369" type="curve" smooth="yes"/>
      <point x="129" y="387"/>
      <point x="129" y="412"/>
      <point x="129" y="423" type="curve" smooth="yes"/>
      <point x="129" y="491"/>
      <point x="219" y="491"/>
    </contour>
  </outline>
</glyph>
<glyph name="multiply" format="2">
  <advance width="517"/>
  <unicode hex="00D7"/>
  <outline>
    <contour>
      <point x="8" y="375" type="curve" smooth="yes"/>
      <point x="168" y="326"/>
      <point x="277" y="217"/>
      <point x="326" y="57" type="curve" smooth="yes"/>
      <point x="346" y="-7"/>
      <point x="260" y="-34"/>
      <point x="240" y="31" type="curve" smooth="yes"/>
      <point x="199" y="161"/>
      <point x="112" y="248"/>
      <point x="-18" y="289" type="curve" smooth="yes"/>
      <point x="-83" y="309"/>
      <point x="-56" y="395"/>
    </contour>
    <contour>
      <point x="315" y="300" type="curve" smooth="yes"/>
      <point x="138" y="124"/>
      <point x="64" y="49"/>
      <point x="27" y="12" type="curve" smooth="yes"/>
      <point x="-21" y="-36"/>
      <point x="-85" y="28"/>
      <point x="-37" y="76" type="curve" smooth="yes"/>
      <point x="18" y="131"/>
      <point x="133" y="245"/>
      <point x="251" y="364" type="curve" smooth="yes"/>
      <point x="299" y="412"/>
      <point x="363" y="348"/>
    </contour>
  </outline>
</glyph>
<glyph name="Oslash" format="2">
  <advance width="732"/>
  <unicode hex="00D8"/>
  <outline>
    <contour>
      <point x="604" y="688" type="curve" smooth="yes"/>
      <point x="506" y="504"/>
      <point x="257" y="149"/>
      <point x="174" y="-7" type="curve" smooth="yes"/>
      <point x="163" y="-27"/>
      <point x="155" y="-45"/>
      <point x="134" y="-93" type="curve" smooth="yes"/>
      <point x="131" y="-101"/>
      <point x="184" y="14"/>
      <point x="180" y="17" type="curve" smooth="yes"/>
      <point x="165" y="32"/>
      <point x="161" y="-39"/>
      <point x="24" y="17" type="curve" smooth="yes"/>
      <point x="-44" y="45"/>
      <point x="-75" y="114"/>
      <point x="-75" y="221" type="curve" smooth="yes"/>
      <point x="-75" y="424"/>
      <point x="58" y="570"/>
      <point x="244" y="570" type="curve" smooth="yes"/>
      <point x="431" y="570"/>
      <point x="567" y="426"/>
      <point x="567" y="221" type="curve" smooth="yes"/>
      <point x="567" y="113"/>
      <point x="529" y="22"/>
      <point x="467" y="-41" type="curve" smooth="yes"/>
      <point x="406" y="-102"/>
      <point x="328" y="-118"/>
      <point x="261" y="-98" type="curve" smooth="yes"/>
      <point x="196" y="-79"/>
      <point x="222" y="8"/>
      <point x="287" y="-12" type="curve" smooth="yes"/>
      <point x="326" y="-24"/>
      <point x="368" y="-12"/>
      <point x="403" y="23" type="curve" smooth="yes"/>
      <point x="450" y="70"/>
      <point x="477" y="139"/>
      <point x="477" y="221" type="curve" smooth="yes"/>
      <point x="477" y="374"/>
      <point x="383" y="480"/>
      <point x="244" y="480" type="curve" smooth="yes"/>
      <point x="106" y="480"/>
      <point x="15" y="372"/>
      <point x="15" y="221" type="curve" smooth="yes"/>
      <point x="15" y="167"/>
      <point x="24" y="115"/>
      <point x="58" y="101" type="curve" smooth="yes"/>
      <point x="111" y="79"/>
      <point x="204" y="119"/>
      <point x="242" y="83" type="curve" smooth="yes"/>
      <point x="343" y="-11"/>
      <point x="-61" y="-316"/>
      <point x="52" y="-57" type="curve" smooth="yes"/>
      <point x="73" y="-7"/>
      <point x="83" y="13"/>
      <point x="94" y="35" type="curve" smooth="yes"/>
      <point x="177" y="189"/>
      <point x="425" y="544"/>
      <point x="524" y="730" type="curve" smooth="yes"/>
      <point x="556" y="790"/>
      <point x="636" y="747"/>
    </contour>
  </outline>
</glyph>
<glyph name="thorn" format="2">
  <advance width="584"/>
  <unicode hex="00FE"/>
  <outline>
    <contour>
      <point x="305" y="508" type="curve" smooth="yes"/>
      <point x="442" y="508"/>
      <point x="546" y="399"/>
      <point x="546" y="248" type="curve" smooth="yes"/>
      <point x="546" y="97"/>
      <point x="442" y="-11"/>
      <point x="306" y="-11" type="curve" smooth="yes"/>
      <point x="169" y="-11"/>
      <point x="66" y="97"/>
      <point x="66" y="248" type="curve" smooth="yes"/>
      <point x="66" y="399"/>
      <point x="167" y="508"/>
    </contour>
    <contour>
      <point x="305" y="418" type="curve" smooth="yes"/>
      <point x="215" y="418"/>
      <point x="156" y="347"/>
      <point x="156" y="248" type="curve" smooth="yes"/>
      <point x="156" y="149"/>
      <point x="217" y="79"/>
      <point x="306" y="79" type="curve" smooth="yes"/>
      <point x="394" y="79"/>
      <point x="456" y="149"/>
      <point x="456" y="248" type="curve" smooth="yes"/>
      <point x="456" y="347"/>
      <point x="394" y="418"/>
    </contour>
    <contour>
      <point x="66" y="-125" type="curve" smooth="yes"/>
      <point x="66" y="695" type="line" smooth="yes"/>
      <point x="66" y="763"/>
      <point x="156" y="763"/>
      <point x="156" y="695" type="curve" smooth="yes"/>
      <point x="156" y="-125" type="line" smooth="yes"/>
      <point x="156" y="-192"/>
      <point x="66" y="-192"/>
    </contour>
  </outline>
</glyph>
<glyph name="dotlessi" format="2">
  <advance width="231"/>
  <unicode hex="0131"/>
  <outline>
    <contour>
      <point x="-24" y="-82" type="curve" smooth="yes"/>
      <point x="-43" y="-49"/>
      <point x="-50" y="-7"/>
      <point x="-50" y="45" type="curve" smooth="yes"/>
      <point x="-50" y="113"/>
      <point x="-50" y="167"/>
      <point x="-50" y="213" type="curve" smooth="yes"/>
      <point x="-50" y="258"/>
      <point x="-46" y="307"/>
      <point x="-28" y="370" type="curve" smooth="yes"/>
      <point x="-10" y="435"/>
      <point x="76" y="411"/>
      <point x="58" y="346" type="curve" smooth="yes"/>
      <point x="44" y="293"/>
      <point x="40" y="252"/>
      <point x="40" y="213" type="curve" smooth="yes"/>
      <point x="40" y="145"/>
      <point x="40" y="91"/>
      <point x="40" y="45" type="curve" smooth="yes"/>
      <point x="40" y="13"/>
      <point x="43" y="-18"/>
      <point x="54" y="-38" type="curve" smooth="yes"/>
      <point x="87" y="-97"/>
      <point x="8" y="-141"/>
    </contour>
  </outline>
</glyph>
<glyph name="endash" format="2">
  <advance width="555"/>
  <unicode hex="2013"/>
  <outline>
    <contour>
      <point x="375" y="175" type="curve" smooth="yes"/>
      <point x="298" y="149"/>
      <point x="231" y="143"/>
      <point x="159" y="143" type="curve" smooth="yes"/>
      <point x="65" y="143"/>
      <point x="13" y="153"/>
      <point x="-18" y="188" type="curve" smooth="yes"/>
      <point x="-64" y="237"/>
      <point x="2" y="298"/>
      <point x="48" y="248" type="curve" smooth="yes"/>
      <point x="60" y="235"/>
      <point x="122" y="233"/>
      <point x="159" y="233" type="curve" smooth="yes"/>
      <point x="221" y="233"/>
      <point x="278" y="237"/>
      <point x="345" y="261" type="curve" smooth="yes"/>
      <point x="409" y="283"/>
      <point x="439" y="198"/>
    </contour>
  </outline>
</glyph>
<glyph name="emdash" format="2">
  <advance width="805"/>
  <unicode hex="2014"/>
  <outline>
    <contour>
      <point x="628" y="179" type="curve" smooth="yes"/>
      <point x="549" y="153"/>
      <point x="487" y="143"/>
      <point x="418" y="143" type="curve" smooth="yes"/>
      <point x="317" y="143"/>
      <point x="221" y="143"/>
      <point x="153" y="143" type="curve" smooth="yes"/>
      <point x="61" y="143"/>
      <point x="11" y="160"/>
      <point x="-16" y="194" type="curve" smooth="yes"/>
      <point x="-58" y="247"/>
      <point x="12" y="303"/>
      <point x="54" y="250" type="curve" smooth="yes"/>
      <point x="65" y="237"/>
      <point x="118" y="233"/>
      <point x="153" y="233" type="curve" smooth="yes"/>
      <point x="254" y="233"/>
      <point x="350" y="233"/>
      <point x="418" y="233" type="curve" smooth="yes"/>
      <point x="479" y="233"/>
      <point x="531" y="241"/>
      <point x="600" y="265" type="curve" smooth="yes"/>
      <point x="664" y="286"/>
      <point x="692" y="201"/>
    </contour>
  </outline>
</glyph>
<glyph name="quotedblleft" format="2">
  <advance width="474"/>
  <unicode hex="201C"/>
  <outline>
    <contour>
      <point x="78" y="502" type="curve" smooth="yes"/>
      <point x="53" y="460"/>
      <point x="29" y="387"/>
      <point x="55" y="363" type="curve" smooth="yes"/>
      <point x="105" y="318"/>
      <point x="45" y="251"/>
      <point x="-5" y="297" type="curve" smooth="yes"/>
      <point x="-63" y="349"/>
      <point x="-56" y="451"/>
      <point x="0" y="548" type="curve" smooth="yes"/>
      <point x="34" y="606"/>
      <point x="112" y="561"/>
    </contour>
    <contour>
      <point x="278" y="502" type="curve" smooth="yes"/>
      <point x="253" y="460"/>
      <point x="229" y="387"/>
      <point x="255" y="363" type="curve" smooth="yes"/>
      <point x="305" y="318"/>
      <point x="245" y="251"/>
      <point x="195" y="297" type="curve" smooth="yes"/>
      <point x="137" y="349"/>
      <point x="144" y="451"/>
      <point x="200" y="548" type="curve" smooth="yes"/>
      <point x="234" y="606"/>
      <point x="312" y="561"/>
    </contour>
  </outline>
</glyph>
<glyph name="guilsinglright" format="2">
  <advance width="397"/>
  <unicode hex="203A"/>
  <outline>
    <contour>
      <point x="-17" y="8" type="curve" smooth="yes"/>
      <point x="-1" y="20"/>
      <point x="22" y="40"/>
      <point x="102" y="115" type="curve" smooth="yes"/>
      <point x="157" y="166"/>
      <point x="191" y="179"/>
      <point x="152" y="215" type="curve" smooth="yes"/>
      <point x="104" y="258"/>
      <point x="7" y="251"/>
      <point x="-50" y="302" type="curve" smooth="yes"/>
      <point x="-100" y="347"/>
      <point x="-40" y="415"/>
      <point x="10" y="370" type="curve" smooth="yes"/>
      <point x="48" y="335"/>
      <point x="140" y="346"/>
      <point x="212" y="281" type="curve" smooth="yes"/>
      <point x="296" y="205"/>
      <point x="282" y="159"/>
      <point x="164" y="49" type="curve" smooth="yes"/>
      <point x="76" y="-32"/>
      <point x="55" y="-50"/>
      <point x="37" y="-64" type="curve" smooth="yes"/>
      <point x="-16" y="-105"/>
      <point x="-71" y="-33"/>
    </contour>
  </outline>
</glyph>
<glyph name="fraction" format="2">
  <advance width="568"/>
  <unicode hex="2044"/>
  <outline>
    <contour>
      <point x="417" y="522" type="curve" smooth="yes"/>
      <point x="359" y="447"/>
      <point x="329" y="399"/>
      <point x="300" y="353" type="curve" smooth="yes"/>
      <point x="246" y="266"/>
      <point x="183" y="166"/>
      <point x="115" y="56" type="curve" smooth="yes"/>
      <point x="113" y="52"/>
      <point x="23" y="23"/>
      <point x="25" y="24" type="curve" smooth="yes"/>
      <point x="90" y="40"/>
      <point x="113" y="-47"/>
      <point x="47" y="-64" type="curve" smooth="yes"/>
      <point x="-21" y="-81"/>
      <point x="-45" y="-31"/>
      <point x="39" y="104" type="curve" smooth="yes"/>
      <point x="93" y="191"/>
      <point x="156" y="291"/>
      <point x="224" y="401" type="curve" smooth="yes"/>
      <point x="255" y="449"/>
      <point x="285" y="499"/>
      <point x="347" y="578" type="curve" smooth="yes"/>
      <point x="388" y="631"/>
      <point x="459" y="576"/>
    </contour>
  </outline>
</glyph>
<glyph name="Euro" format="2">
  <advance width="606"/>
  <unicode hex="20AC"/>
  <outline>
    <contour>
      <point x="541" y="50" type="curve" smooth="yes"/>
      <point x="297" y="-36"/>
      <point x="103" y="96"/>
      <point x="103" y="340" type="curve" smooth="yes"/>
      <point x="103" y="584"/>
      <point x="297" y="716"/>
      <point x="541" y="630" type="curve" smooth="yes"/>
      <point x="605" y="608"/>
      <point x="575" y="523"/>
      <point x="511" y="546" type="curve" smooth="yes"/>
      <point x="327" y="610"/>
      <point x="193" y="524"/>
      <point x="193" y="340" type="curve" smooth="yes"/>
      <point x="193" y="156"/>
      <point x="327" y="70"/>
      <point x="511" y="134" type="curve" smooth="yes"/>
      <point x="575" y="157"/>
      <point x="605" y="72"/>
    </contour>
    <contour>
      <point x="70" y="465" type="curve" smooth="yes"/>
      <point x="456" y="465" type="line" smooth="yes"/>
      <point x="524" y="465"/>
      <point x="524" y="375"/>
      <point x="456" y="375" type="curve" smooth="yes"/>
      <point x="70" y="375" type="line" smooth="yes"/>
      <point x="3" y="375"/>
      <point x="3" y="465"/>
    </contour>
    <contour>
      <point x="70" y="307" type="curve" smooth="yes"/>
      <point x="442" y="307" type="line" smooth="yes"/>
      <point x="510" y="307"/>
      <point x="510" y="217"/>
      <point x="442" y="217" type="curve" smooth="yes"/>
      <point x="70" y="217" type="line" smooth="yes"/>
      <point x="3" y="217"/>
      <point x="3" y="307"/>
    </contour>
  </outline>
</glyph>
<glyph name="a" format="2">
  <advance width="623"/>
  <outline>
    <contour>
      <point x="556.009065288935" y="487.0139828460187" type="curve" smooth="yes"/>
      <point x="556.0148263700299" y="428.35605389029246"/>
      <point x="556.0044459463799" y="386.6248490925957"/>
      <point x="556.0003455562171" y="266.9986349726313" type="curve" smooth="yes"/>
      <point x="555.9942935632293" y="90.43567872775951"/>
      <point x="426.98171850271086" y="-9.98650579805495"/>
      <point x="301.02062329877685" y="-9.974689307480794" type="curve" smooth="yes"/>
      <point x="150.06107712972312" y="-9.96052769629841"/>
      <point x="50.02618750607016" y="107.33923790659689"/>
      <point x="50.026182580804395" y="269.02617812617336" type="curve" smooth="yes"/>
      <point x="50.026177634744315" y="431.39575602900675"/>
      <point x="160.00581826530444" y="547.0296668351082"/>
      <point x="303.02966320209356" y="547.0296668351082" type="curve" smooth="yes"/>
      <point x="446.12502006135094" y="547.0296668351082"/>
      <point x="556.0244637943601" y="430.4659178144131"/>
      <point x="556.0261763942574" y="269.0267100656076" type="curve" smooth="yes"/>
      <point x="556.0274015972732" y="155.02794049159348" type="line" smooth="yes"/>
      <point x="556.0279738842922" y="106.78799669424194"/>
      <point x="556.023338998101" y="60.09016373474691"/>
      <point x="556.0192012389383" y="38.00983206588893" type="curve" smooth="yes"/>
      <point x="556.005146561843" y="-36.990166617218065"/>
      <point x="456.00514831770033" y="-36.97142704775776"/>
      <point x="456.0192029947956" y="38.02857163534924" type="curve" smooth="yes"/>
      <point x="456.02522622710103" y="70.17035702896607"/>
      <point x="456.02823466846706" y="84.80505162438094"/>
      <point x="456.02740160304865" y="155.02686574050637" type="curve" smooth="yes"/>
      <point x="456.0261763998842" y="269.0256492329133" type="line" smooth="yes"/>
      <point x="456.02509018860746" y="371.4179757981569"/>
      <point x="393.787458125747" y="447.0296668351082"/>
      <point x="303.02966320209356" y="447.0296668351082" type="curve" smooth="yes"/>
      <point x="212.1810423697631" y="447.0296668351082"/>
      <point x="150.0261794390713" y="372.1631946131442"/>
      <point x="150.02618258080435" y="269.0261811723475" type="curve" smooth="yes"/>
      <point x="150.02618574077286" y="165.2905317204383"/>
      <point x="204.1768723682584" y="90.03439610650206"/>
      <point x="301.03000436228285" y="90.02531025249743" type="curve" smooth="yes"/>
      <point x="380.96041114108544" y="90.01781193012447"/>
      <point x="455.9965052366247" y="154.96152431569877"/>
      <point x="456.00034561496165" y="267.0020626412163" type="curve" smooth="yes"/>
      <point x="456.0034285692951" y="356.9452486647248"/>
      <point x="456.01672392503116" y="409.030698841565"/>
      <point x="456.009065771243" y="487.0041613586771" type="curve" smooth="yes"/>
      <point x="456.0016996557367" y="562.004160996946"/>
      <point x="556.0016991734286" y="562.0139824842877"/>
    </contour>
  </outline>
</glyph>
<glyph name="tilde.cap" format="2">
  <advance width="565"/>
  <outline>
    <contour>
      <point x="357" y="773" type="curve" smooth="yes"/>
      <point x="357" y="686"/>
      <point x="309" y="621"/>
      <point x="234" y="621" type="curve" smooth="yes"/>
      <point x="127" y="621"/>
      <point x="131" y="728"/>
      <point x="87" y="728" type="curve" smooth="yes"/>
      <point x="64" y="728"/>
      <point x="56" y="693"/>
      <point x="56" y="666" type="curve" smooth="yes"/>
      <point x="56" y="599"/>
      <point x="-34" y="599"/>
      <point x="-34" y="666" type="curve" smooth="yes"/>
      <point x="-34" y="753"/>
      <point x="13" y="818"/>
      <point x="87" y="818" type="curve" smooth="yes"/>
      <point x="192" y="818"/>
      <point x="189" y="711"/>
      <point x="234" y="711" type="curve" smooth="yes"/>
      <point x="259" y="711"/>
      <point x="267" y="745"/>
      <point x="267" y="773" type="curve" smooth="yes"/>
      <point x="267" y="841"/>
      <point x="357" y="841"/>
    </contour>
  </outline>
</glyph>
<glyph name="u.alt" format="2">
  <advance width="560"/>
  <outline>
    <contour>
      <point x="40" y="341" type="curve" smooth="yes"/>
      <point x="27" y="291"/>
      <point x="27" y="255"/>
      <point x="27" y="219" type="curve" smooth="yes"/>
      <point x="27" y="165"/>
      <point x="27" y="123"/>
      <point x="27" y="87" type="curve" smooth="yes"/>
      <point x="27" y="2"/>
      <point x="85" y="-31"/>
      <point x="170" y="-31" type="curve" smooth="yes"/>
      <point x="254" y="-31"/>
      <point x="293" y="1"/>
      <point x="293" y="87" type="curve" smooth="yes"/>
      <point x="293" y="142"/>
      <point x="293" y="221"/>
      <point x="293" y="258" type="curve" smooth="yes"/>
      <point x="293" y="435"/>
      <point x="532" y="567"/>
      <point x="506" y="368" type="curve" smooth="yes"/>
      <point x="503" y="345"/>
      <point x="496" y="298"/>
      <point x="502" y="288" type="curve" smooth="yes"/>
      <point x="536" y="230"/>
      <point x="459" y="184"/>
      <point x="424" y="242" type="curve" smooth="yes"/>
      <point x="406" y="273"/>
      <point x="407" y="307"/>
      <point x="416" y="380" type="curve" smooth="yes"/>
      <point x="418" y="389"/>
      <point x="383" y="266"/>
      <point x="383" y="258" type="curve" smooth="yes"/>
      <point x="383" y="203"/>
      <point x="383" y="124"/>
      <point x="383" y="87" type="curve" smooth="yes"/>
      <point x="383" y="-49"/>
      <point x="304" y="-121"/>
      <point x="170" y="-121" type="curve" smooth="yes"/>
      <point x="35" y="-121"/>
      <point x="-63" y="-49"/>
      <point x="-63" y="87" type="curve" smooth="yes"/>
      <point x="-63" y="141"/>
      <point x="-63" y="183"/>
      <point x="-63" y="219" type="curve" smooth="yes"/>
      <point x="-63" y="262"/>
      <point x="-63" y="305"/>
      <point x="-46" y="365" type="curve" smooth="yes"/>
      <point x="-29" y="430"/>
      <point x="58" y="406"/>
    </contour>
  </outline>
</glyph>
